<svg width="49" height="48" viewBox="0 0 49 48" fill="none" xmlns="http://www.w3.org/2000/svg">
<path d="M9.46006 12.1709C10.1357 8.74895 12.0062 5.66406 14.7506 3.4458C17.4949 1.22754 20.942 0.0142822 24.5 0.0142822C28.058 0.0142822 31.5051 1.22754 34.2494 3.4458C36.9938 5.66406 38.8643 8.74895 39.5399 12.1709C40.5008 12.4391 41.3462 13.0068 41.948 13.788C42.5498 14.5692 42.8753 15.5213 42.875 16.4999V19.4999C42.8751 20.4945 42.5389 21.4611 41.9189 22.2486C41.2989 23.0362 40.43 23.6003 39.4481 23.8529L37.0838 42.3719C36.9913 43.0974 36.6315 43.7647 36.0721 44.2487C35.5127 44.7326 34.7921 44.9997 34.0458 44.9999H14.9542C14.2079 44.9997 13.4873 44.7326 12.9279 44.2487C12.3685 43.7647 12.0087 43.0974 11.9162 42.3719L9.55194 23.8529C8.56997 23.6003 7.70109 23.0362 7.08108 22.2486C6.46108 21.4611 6.12487 20.4945 6.125 19.4999V16.4999C6.12473 15.5213 6.45017 14.5692 7.052 13.788C7.65383 13.0068 8.49923 12.4391 9.46006 12.1709ZM12.6359 11.9999H36.3641C35.6829 9.42522 34.1482 7.14498 32.0009 5.51716C29.8535 3.88934 27.2152 3.00611 24.5 3.00611C21.7848 3.00611 19.1465 3.88934 16.9991 5.51716C14.8518 7.14498 13.3171 9.42522 12.6359 11.9999ZM36.3427 23.9999H12.6573L14.9542 41.9999H34.0458L36.3427 23.9999ZM10.7188 20.9999H38.2812C38.6874 20.9999 39.0768 20.8419 39.364 20.5606C39.6512 20.2793 39.8125 19.8978 39.8125 19.4999V16.4999C39.8125 16.1021 39.6512 15.7206 39.364 15.4393C39.0768 15.158 38.6874 14.9999 38.2812 14.9999H10.7188C10.3126 14.9999 9.92316 15.158 9.63599 15.4393C9.34883 15.7206 9.1875 16.1021 9.1875 16.4999V19.4999C9.1875 19.8978 9.34883 20.2793 9.63599 20.5606C9.92316 20.8419 10.3126 20.9999 10.7188 20.9999ZM18.375 29.9999H21.4375V32.9999H18.375V29.9999ZM27.5625 32.9999H30.625V35.9999H27.5625V32.9999ZM21.4375 35.9999H24.5V38.9999H21.4375V35.9999ZM24.5 26.9999H27.5625V29.9999H24.5V26.9999Z" fill="#CCCCCC"/>
</svg>
