<svg width="64" height="61" viewBox="0 0 64 61" fill="none" xmlns="http://www.w3.org/2000/svg">
<path fill-rule="evenodd" clip-rule="evenodd" d="M41.9333 55.9167V36.2315H48.8667L49.904 28.5608H41.9307V23.663C41.9307 21.4415 42.5787 19.9267 45.9227 19.9267H50.184V13.0642C48.1203 12.8549 46.0461 12.7531 43.9707 12.7592C37.8267 12.7592 33.6213 16.3353 33.6213 22.9005V28.5608H26.6667V36.2315H33.6187V55.9167H8.27733C6.65067 55.9167 5.33333 54.6611 5.33333 53.1107V7.88937C5.33333 6.33896 6.65067 5.08337 8.27733 5.08337H55.7227C57.3493 5.08337 58.6667 6.33896 58.6667 7.88937V53.1107C58.6667 54.6611 57.3493 55.9167 55.7227 55.9167H41.9333Z" fill="#699BF7"/>
</svg>
