<svg width="24" height="24" viewBox="0 0 24 24" fill="none" xmlns="http://www.w3.org/2000/svg">
<g clip-path="url(#clip0_78_288)">
<path d="M2 20C1.45 20 0.979002 19.804 0.587002 19.412C0.195002 19.02 -0.000664969 18.5493 1.69779e-06 18V4C1.69779e-06 3.45 0.196002 2.979 0.588002 2.587C0.980002 2.195 1.45067 1.99934 2 2H22C22.55 2 23.021 2.196 23.413 2.588C23.805 2.98 24.0007 3.45067 24 4V18C24 18.55 23.804 19.021 23.412 19.413C23.02 19.805 22.5493 20.0007 22 20H2ZM15.9 18H22V4H2V18H2.1C2.8 16.75 3.76667 15.7707 5 15.062C6.23334 14.3533 7.56667 13.9993 9 14C10.4333 14 11.7667 14.3543 13 15.063C14.2333 15.7717 15.2 16.7507 15.9 18ZM9 13C9.83333 13 10.5417 12.7083 11.125 12.125C11.7083 11.5417 12 10.8333 12 10C12 9.16667 11.7083 8.45834 11.125 7.875C10.5417 7.29167 9.83333 7 9 7C8.16667 7 7.45834 7.29167 6.875 7.875C6.29167 8.45834 6 9.16667 6 10C6 10.8333 6.29167 11.5417 6.875 12.125C7.45834 12.7083 8.16667 13 9 13ZM19 17L21 15L19.5 13H17.85C17.75 12.7 17.6667 12.379 17.6 12.037C17.5333 11.695 17.5 11.3493 17.5 11C17.5 10.65 17.5333 10.3127 17.6 9.988C17.6667 9.66334 17.75 9.334 17.85 9H19.5L21 7L19 5C18.1 5.7 17.375 6.58767 16.825 7.663C16.275 8.73834 16 9.85067 16 11C16 12.15 16.275 13.2627 16.825 14.338C17.375 15.4133 18.1 16.3007 19 17ZM4.55 18H13.45C12.8833 17.3667 12.2123 16.875 11.437 16.525C10.6617 16.175 9.84934 16 9 16C8.15 16 7.34167 16.175 6.575 16.525C5.80834 16.875 5.13334 17.3667 4.55 18ZM9 11C8.71667 11 8.479 10.904 8.287 10.712C8.095 10.52 7.99934 10.2827 8 10C8 9.71667 8.096 9.479 8.288 9.287C8.48 9.095 8.71734 8.99934 9 9C9.28334 9 9.521 9.096 9.713 9.288C9.905 9.48 10.0007 9.71734 10 10C10 10.2833 9.904 10.521 9.712 10.713C9.52 10.905 9.28267 11.0007 9 11Z" fill="black"/>
</g>
<defs>
<clipPath id="clip0_78_288">
<rect width="24" height="24" fill="white"/>
</clipPath>
</defs>
</svg>
