<svg width="50" height="51" viewBox="0 0 50 51" fill="none" xmlns="http://www.w3.org/2000/svg">
<g clip-path="url(#clip0_41_41)">
<path d="M38.2812 0H11.7188C5.24666 0 0 5.3516 0 11.9531V39.0469C0 45.6484 5.24666 51 11.7188 51H38.2812C44.7533 51 50 45.6484 50 39.0469V11.9531C50 5.3516 44.7533 0 38.2812 0Z" fill="url(#paint0_radial_41_41)"/>
<path d="M38.2812 0H11.7188C5.24666 0 0 5.3516 0 11.9531V39.0469C0 45.6484 5.24666 51 11.7188 51H38.2812C44.7533 51 50 45.6484 50 39.0469V11.9531C50 5.3516 44.7533 0 38.2812 0Z" fill="url(#paint1_radial_41_41)"/>
<path d="M25.0018 5.57812C19.6975 5.57812 19.0316 5.60183 16.9484 5.69845C14.8691 5.79567 13.4498 6.13136 12.208 6.62402C10.9232 7.13283 9.83359 7.81356 8.74805 8.92121C7.66152 10.0287 6.99414 11.1401 6.49375 12.45C6.00938 13.717 5.67988 15.1653 5.58633 17.2852C5.49316 19.4103 5.46875 20.0896 5.46875 25.5002C5.46875 30.9108 5.49219 31.5877 5.58672 33.7126C5.68242 35.8335 6.01152 37.2812 6.49414 38.5478C6.99336 39.8583 7.66074 40.9697 8.74668 42.077C9.83203 43.1852 10.9217 43.8676 12.2055 44.3764C13.4482 44.869 14.8678 45.2047 16.9467 45.3019C19.0301 45.3986 19.6953 45.4223 24.9994 45.4223C30.3043 45.4223 30.968 45.3986 33.0512 45.3019C35.1305 45.2047 36.5514 44.869 37.7941 44.3764C39.0783 43.8676 40.1664 43.1852 41.2516 42.077C42.3381 40.9697 43.0053 39.8583 43.5059 38.5484C43.9859 37.2812 44.3156 35.8331 44.4133 33.713C44.5068 31.5881 44.5312 30.9108 44.5312 25.5002C44.5312 20.0896 44.5068 19.4107 44.4133 17.2856C44.3156 15.1647 43.9859 13.7172 43.5059 12.4506C43.0053 11.1401 42.3381 10.0287 41.2516 8.92121C40.1652 7.81316 39.0787 7.13243 37.793 6.62422C36.5479 6.13136 35.1277 5.79547 33.0484 5.69845C30.965 5.60183 30.3018 5.57812 24.9957 5.57812H25.0018ZM23.2496 9.16825C23.7697 9.16745 24.35 9.16825 25.0018 9.16825C30.2168 9.16825 30.8348 9.18737 32.8941 9.2828C34.7984 9.37165 35.832 9.69618 36.5205 9.96891C37.432 10.3299 38.0818 10.7616 38.765 11.4591C39.4486 12.1563 39.8717 12.8203 40.2266 13.7501C40.4939 14.4513 40.8125 15.5056 40.8992 17.448C40.9928 19.5481 41.0131 20.1789 41.0131 25.4956C41.0131 30.8124 40.9928 31.4433 40.8992 33.5433C40.8121 35.4856 40.4939 36.5399 40.2266 37.2414C39.8727 38.1711 39.4486 38.8331 38.765 39.53C38.0814 40.2272 37.4324 40.6588 36.5205 41.0199C35.8328 41.2939 34.7984 41.6176 32.8941 41.7064C30.8352 41.8019 30.2168 41.8226 25.0018 41.8226C19.7865 41.8226 19.1684 41.8019 17.1096 41.7064C15.2053 41.6168 14.1717 41.2923 13.4826 41.0195C12.5713 40.6584 11.9201 40.2269 11.2365 39.5296C10.5529 38.8323 10.1299 38.1699 9.775 37.2398C9.50762 36.5383 9.18906 35.484 9.10234 33.5417C9.00879 31.4415 8.99004 30.8108 8.99004 25.4906C8.99004 20.1707 9.00879 19.5432 9.10234 17.443C9.18945 15.5006 9.50762 14.4463 9.775 13.7441C10.1291 12.8143 10.5529 12.1504 11.2367 11.4531C11.9203 10.7558 12.5713 10.3241 13.4828 9.96233C14.1713 9.68841 15.2053 9.36468 17.1096 9.27543C18.9113 9.19235 19.6096 9.16745 23.2496 9.16327V9.16825ZM35.4275 12.4761C34.1336 12.4761 33.0838 13.5459 33.0838 14.8659C33.0838 16.1857 34.1336 17.2565 35.4275 17.2565C36.7215 17.2565 37.7713 16.1857 37.7713 14.8659C37.7713 13.5461 36.7215 12.4753 35.4275 12.4753V12.4761ZM25.0018 15.2693C19.4627 15.2693 14.9717 19.8502 14.9717 25.5002C14.9717 31.1502 19.4627 35.7289 25.0018 35.7289C30.541 35.7289 35.0305 31.1502 35.0305 25.5002C35.0305 19.8504 30.5406 15.2693 25.0014 15.2693H25.0018ZM25.0018 18.8594C28.5973 18.8594 31.5123 21.8324 31.5123 25.5002C31.5123 29.1676 28.5973 32.141 25.0018 32.141C21.4061 32.141 18.4914 29.1676 18.4914 25.5002C18.4914 21.8324 21.4061 18.8594 25.0018 18.8594Z" fill="white"/>
</g>
<defs>
<radialGradient id="paint0_radial_41_41" cx="0" cy="0" r="1" gradientUnits="userSpaceOnUse" gradientTransform="translate(13.2812 54.928) rotate(-90) scale(50.5448 46.0889)">
<stop stop-color="#FFDD55"/>
<stop offset="0.1" stop-color="#FFDD55"/>
<stop offset="0.5" stop-color="#FF543E"/>
<stop offset="1" stop-color="#C837AB"/>
</radialGradient>
<radialGradient id="paint1_radial_41_41" cx="0" cy="0" r="1" gradientUnits="userSpaceOnUse" gradientTransform="translate(-8.3752 3.67379) rotate(78.8974) scale(22.5769 91.3746)">
<stop stop-color="#3771C8"/>
<stop offset="0.128" stop-color="#3771C8"/>
<stop offset="1" stop-color="#6600FF" stop-opacity="0"/>
</radialGradient>
<clipPath id="clip0_41_41">
<rect width="50" height="51" fill="white"/>
</clipPath>
</defs>
</svg>
